<svg id="splitsvg" xmlns="http://www.w3.org/2000/svg" xmlns:xlink="http://www.w3.org/1999/xlink" width="1380" height="795"><g id="svgg"><path id="path0" d="M0.000 112.549 L 0.000 225.098 200.000 225.098 L 400.000 225.098 400.000 112.549 L 400.000 0.000 200.000 0.000 L 0.000 0.000 0.000 112.549 M224.210 9.398 C 224.223 11.584,224.233 11.623,226.743 19.093 L 229.263 26.593 232.414 27.946 C 234.147 28.690,235.871 29.437,236.244 29.604 C 236.618 29.772,237.200 30.014,237.539 30.143 L 238.154 30.377 238.154 38.717 L 238.154 47.056 234.271 46.995 L 230.388 46.933 230.246 45.808 C 229.976 43.674,228.522 40.828,227.144 39.734 C 221.009 34.861,212.644 37.831,211.304 45.357 L 211.024 46.933 195.835 46.933 L 180.645 46.933 180.388 45.582 C 178.331 34.760,163.156 34.579,161.509 45.357 L 161.269 46.933 153.060 46.933 L 144.851 46.933 144.788 43.950 L 144.725 40.968 145.970 40.968 L 147.214 40.968 147.214 24.086 L 147.214 7.203 185.706 7.203 L 224.198 7.203 224.210 9.398 M152.842 16.067 C 152.842 19.811,152.880 19.935,154.080 20.070 L 154.755 20.146 154.868 25.726 C 154.986 31.574,155.014 31.726,156.006 31.735 C 157.065 31.746,157.111 31.504,157.173 25.661 L 157.231 20.146 157.967 20.075 C 159.220 19.955,159.392 19.418,159.320 15.843 C 159.268 13.243,159.200 12.718,158.920 12.718 C 158.643 12.718,158.570 13.178,158.518 15.250 C 158.455 17.766,158.451 17.783,157.907 17.783 C 157.362 17.783,157.358 17.765,157.295 15.269 C 157.202 11.611,156.669 11.544,156.669 15.190 L 156.669 17.813 156.050 17.741 L 155.431 17.670 155.367 15.122 C 155.278 11.587,154.782 11.706,154.691 15.283 L 154.628 17.811 154.016 17.741 L 153.405 17.670 153.341 15.138 C 153.244 11.266,152.842 12.014,152.842 16.067 M169.162 12.747 C 158.753 15.460,158.878 29.820,169.326 31.545 C 180.715 33.425,184.982 17.447,174.226 13.197 C 173.225 12.801,170.039 12.518,169.162 12.747 M184.048 13.072 L 183.455 13.539 183.455 18.797 L 183.455 24.056 184.074 24.127 L 184.693 24.198 184.755 27.739 C 184.823 31.610,184.965 31.974,186.276 31.645 C 187.042 31.452,187.095 30.736,187.015 21.572 L 186.944 13.543 186.403 13.074 C 185.715 12.477,184.806 12.476,184.048 13.072 M172.946 15.233 C 179.785 17.440,179.940 26.682,173.179 29.071 C 167.653 31.024,162.075 25.341,164.094 19.817 C 165.457 16.087,169.348 14.072,172.946 15.233 M212.493 20.817 L 212.493 26.562 218.683 26.562 C 223.339 26.562,224.873 26.495,224.873 26.292 C 224.873 26.021,223.285 21.052,222.729 19.584 C 222.565 19.150,222.181 17.985,221.875 16.995 L 221.319 15.194 216.906 15.133 L 212.493 15.072 212.493 20.817 M173.751 40.159 C 179.230 42.523,179.715 50.214,174.569 53.110 C 167.224 57.241,159.856 47.714,165.799 41.771 C 167.919 39.651,171.086 39.009,173.751 40.159 M223.564 40.158 C 228.878 42.508,229.514 49.657,224.699 52.915 C 219.971 56.114,213.555 52.681,213.518 46.933 C 213.483 41.660,218.821 38.060,223.564 40.158 M168.889 43.725 C 166.811 45.193,166.666 48.226,168.604 49.683 C 170.718 51.273,173.037 50.725,174.250 48.349 C 175.861 45.193,171.785 41.679,168.889 43.725 M218.637 43.725 C 216.224 45.433,216.566 48.815,219.293 50.218 C 222.156 51.690,225.385 48.432,224.103 45.364 C 223.297 43.436,220.310 42.541,218.637 43.725 M201.739 56.266 C 204.230 57.379,204.830 59.396,204.836 66.667 C 204.843 75.643,203.683 77.762,198.764 77.762 C 195.620 77.762,194.112 76.827,193.152 74.282 C 192.456 72.440,192.439 61.103,193.129 59.216 C 194.302 56.006,198.184 54.676,201.739 56.266 M145.414 57.062 L 145.414 58.301 143.728 58.301 L 142.042 58.301 141.983 67.923 L 141.925 77.546 140.293 77.613 L 138.661 77.679 138.661 67.999 L 138.661 58.319 136.804 58.253 L 134.947 58.188 134.875 57.320 C 134.747 55.756,134.500 55.824,140.229 55.824 L 145.414 55.824 145.414 57.062 M153.851 56.044 C 153.926 56.164,154.146 57.051,154.341 58.013 C 154.536 58.976,154.890 60.675,155.128 61.790 C 155.366 62.904,155.701 64.524,155.872 65.391 C 156.042 66.258,156.242 67.119,156.315 67.304 C 156.388 67.490,156.605 68.452,156.798 69.443 C 157.217 71.596,157.688 73.836,157.982 75.070 C 158.100 75.566,158.263 76.351,158.343 76.815 L 158.490 77.659 156.946 77.659 L 155.403 77.659 155.139 76.590 C 154.994 76.002,154.778 74.887,154.659 74.112 C 154.366 72.212,154.426 72.257,152.208 72.257 L 150.250 72.257 149.834 74.451 C 149.606 75.658,149.368 76.874,149.305 77.153 C 149.201 77.619,149.066 77.659,147.615 77.659 L 146.038 77.659 146.164 77.040 C 146.234 76.699,146.439 75.712,146.620 74.845 C 146.801 73.979,147.114 72.459,147.315 71.469 C 147.517 70.478,147.775 69.313,147.890 68.880 C 148.004 68.447,148.263 67.282,148.464 66.292 C 149.124 63.049,149.428 61.597,149.923 59.313 C 150.192 58.075,150.464 56.784,150.527 56.443 C 150.647 55.796,153.487 55.455,153.851 56.044 M163.647 60.326 C 163.647 62.802,163.726 64.828,163.823 64.828 C 163.920 64.828,164.983 62.802,166.185 60.326 L 168.371 55.824 169.835 55.824 C 171.613 55.824,171.610 55.806,170.379 58.456 C 169.873 59.547,169.277 60.844,169.054 61.339 C 168.831 61.835,168.334 62.924,167.949 63.760 C 167.076 65.653,167.045 65.324,168.378 68.317 C 168.488 68.565,168.841 69.426,169.162 70.231 C 169.482 71.035,169.837 71.896,169.949 72.144 C 170.062 72.392,170.418 73.253,170.741 74.057 C 171.064 74.862,171.474 75.840,171.652 76.230 C 172.249 77.540,172.147 77.659,170.427 77.659 C 168.886 77.659,168.877 77.655,168.606 76.927 C 168.370 76.294,167.918 75.168,167.229 73.495 C 167.127 73.247,166.780 72.386,166.459 71.581 C 166.138 70.777,165.734 69.814,165.563 69.443 C 165.391 69.071,165.195 68.584,165.126 68.359 C 164.952 67.795,164.681 68.026,164.123 69.212 C 163.698 70.117,163.647 70.627,163.647 73.952 L 163.647 77.679 162.015 77.613 L 160.383 77.546 160.324 66.967 C 160.256 54.613,160.066 55.824,162.064 55.824 L 163.647 55.824 163.647 60.326 M182.285 57.119 L 182.353 58.301 179.640 58.301 L 176.927 58.301 176.927 61.790 L 176.927 65.279 179.066 65.279 L 181.204 65.279 181.204 66.380 C 181.204 67.709,181.121 67.755,178.710 67.755 L 176.927 67.755 176.927 71.462 L 176.927 75.169 179.572 75.232 L 182.217 75.295 182.285 76.482 L 182.354 77.669 178.009 77.608 L 173.663 77.546 173.605 66.967 C 173.573 61.148,173.596 56.258,173.656 56.101 C 173.741 55.880,174.734 55.828,177.991 55.876 L 182.217 55.937 182.285 57.119 M210.467 64.603 C 210.597 74.574,210.632 74.756,212.495 75.071 C 215.550 75.587,215.739 74.976,215.825 64.312 L 215.894 55.804 217.401 55.871 L 218.908 55.937 218.969 63.253 C 219.077 76.212,218.458 77.762,213.171 77.762 C 207.863 77.762,207.287 76.519,207.149 64.759 C 207.035 54.992,206.885 55.785,208.832 55.870 L 210.355 55.937 210.467 64.603 M230.951 57.062 L 230.951 58.301 229.263 58.301 L 227.575 58.301 227.575 67.990 L 227.575 77.679 225.943 77.613 L 224.311 77.546 224.252 67.923 L 224.193 58.301 222.395 58.301 L 220.597 58.301 220.597 57.062 L 220.597 55.824 225.774 55.824 L 230.951 55.824 230.951 57.062 M242.319 66.742 L 242.319 77.546 240.743 77.546 L 239.167 77.546 239.108 66.967 C 239.040 54.618,238.862 55.786,240.796 55.870 L 242.319 55.937 242.319 66.742 M248.084 56.275 C 248.291 56.654,248.708 57.619,250.078 60.889 C 250.597 62.127,251.202 63.545,251.423 64.041 C 251.645 64.536,252.001 65.346,252.215 65.841 C 252.430 66.337,252.798 67.154,253.033 67.657 C 253.268 68.160,253.484 68.717,253.512 68.895 C 253.540 69.072,253.616 66.230,253.681 62.577 L 253.799 55.937 255.205 55.870 L 256.612 55.803 256.612 66.731 L 256.612 77.659 255.525 77.659 C 254.307 77.659,254.363 77.724,253.344 75.183 C 253.022 74.378,252.600 73.365,252.407 72.932 C 252.215 72.499,251.924 71.840,251.761 71.469 C 251.423 70.696,249.957 67.156,249.160 65.186 L 248.621 63.855 248.562 70.757 L 248.502 77.659 247.042 77.659 L 245.582 77.659 245.582 66.730 L 245.582 55.801 246.741 55.869 C 247.483 55.913,247.966 56.058,248.084 56.275 M197.524 58.500 C 196.168 59.094,196.173 59.062,196.173 66.747 L 196.173 73.796 196.699 74.355 C 197.785 75.512,200.111 75.319,200.905 74.006 C 201.823 72.488,201.668 60.305,200.716 59.123 C 200.181 58.458,198.409 58.113,197.524 58.500 M152.094 62.127 C 152.013 62.560,151.844 63.472,151.717 64.153 C 151.371 66.014,150.825 69.405,150.820 69.724 C 150.817 69.923,151.278 70.006,152.386 70.006 L 153.956 70.006 153.830 69.274 C 153.760 68.872,153.653 68.391,153.592 68.205 C 153.531 68.019,153.279 66.753,153.033 65.391 C 152.786 64.029,152.507 62.560,152.412 62.127 L 152.240 61.339 152.094 62.127 M190.390 69.618 L 190.458 70.693 187.238 70.631 L 184.018 70.568 183.946 69.815 C 183.811 68.409,183.808 68.411,187.221 68.480 L 190.321 68.542 190.390 69.618 M224.423 84.975 L 224.423 87.563 223.068 87.563 C 221.651 87.563,221.604 87.529,221.206 86.213 C 221.050 85.693,218.517 85.879,218.616 86.403 C 218.694 86.813,219.921 87.072,219.921 86.678 C 219.921 86.384,220.521 86.358,220.698 86.645 C 221.143 87.364,218.882 87.892,218.028 87.268 C 217.374 86.790,217.294 85.111,217.890 84.356 C 218.666 83.372,220.002 83.466,220.641 84.549 L 221.120 85.362 221.365 84.606 C 221.586 83.923,221.702 83.842,222.566 83.780 C 223.391 83.720,223.523 83.640,223.523 83.198 C 223.523 82.614,223.692 82.386,224.123 82.386 C 224.356 82.386,224.423 82.968,224.423 84.975 M169.274 83.286 C 169.522 83.534,169.724 83.838,169.724 83.962 C 169.724 84.321,168.660 84.222,168.517 83.849 C 168.098 82.755,166.348 83.813,166.348 85.161 C 166.348 86.756,167.647 87.438,168.736 86.414 C 169.209 85.970,169.724 85.985,169.724 86.442 C 169.724 88.264,165.791 87.773,165.319 85.893 C 164.743 83.596,167.661 81.673,169.274 83.286 M174.789 83.286 C 174.868 83.534,175.026 83.737,175.142 83.737 C 175.257 83.737,175.352 83.889,175.352 84.074 C 175.352 84.260,175.250 84.412,175.127 84.412 C 175.003 84.412,174.902 84.969,174.902 85.650 C 174.902 86.600,174.980 86.888,175.239 86.888 C 175.425 86.888,175.577 87.046,175.577 87.240 C 175.577 87.501,175.389 87.574,174.845 87.521 L 174.114 87.451 174.045 85.996 C 174.008 85.196,173.862 84.404,173.722 84.235 C 173.554 84.032,173.545 83.876,173.694 83.776 C 173.819 83.692,173.987 83.447,174.067 83.230 C 174.261 82.704,174.613 82.731,174.789 83.286 M187.282 83.174 C 187.282 83.410,187.044 83.512,186.494 83.512 L 185.706 83.512 185.706 85.537 C 185.706 87.413,185.673 87.563,185.256 87.563 C 184.839 87.563,184.806 87.413,184.806 85.552 L 184.806 83.540 184.092 83.470 C 182.361 83.299,183.197 82.836,185.237 82.836 C 186.905 82.836,187.282 82.899,187.282 83.174 M194.458 83.737 C 194.736 84.232,195.007 84.637,195.059 84.637 C 195.111 84.637,195.422 84.232,195.750 83.737 C 196.091 83.220,196.525 82.836,196.766 82.836 C 197.343 82.836,197.303 83.011,196.404 84.422 C 195.832 85.320,195.621 85.907,195.616 86.607 C 195.611 87.411,195.539 87.563,195.160 87.563 C 194.784 87.563,194.710 87.413,194.710 86.645 C 194.710 85.971,194.500 85.410,193.922 84.539 C 193.034 83.201,192.953 82.836,193.543 82.836 C 193.786 82.836,194.158 83.203,194.458 83.737 M211.012 84.018 C 211.374 84.668,211.737 85.250,211.819 85.312 C 211.901 85.374,212.084 85.627,212.224 85.875 C 212.431 86.241,212.481 85.998,212.486 84.581 C 212.492 83.183,212.560 82.836,212.831 82.836 C 213.109 82.836,213.168 83.249,213.168 85.200 C 213.168 87.815,212.682 88.424,211.778 86.943 C 211.571 86.603,211.092 85.819,210.713 85.200 L 210.025 84.074 210.021 85.819 C 210.018 87.218,209.950 87.563,209.679 87.563 C 209.401 87.563,209.342 87.151,209.342 85.200 C 209.342 82.271,209.843 81.917,211.012 84.018 M172.914 84.109 C 173.215 84.382,173.326 84.805,173.326 85.685 C 173.326 86.347,173.427 86.888,173.551 86.888 C 173.675 86.888,173.776 87.027,173.776 87.197 C 173.776 87.865,170.420 87.647,170.160 86.962 C 169.803 86.024,170.403 85.312,171.549 85.312 C 172.489 85.312,172.643 85.007,171.930 84.557 C 171.670 84.393,171.470 84.435,171.195 84.710 C 170.746 85.159,170.474 85.189,170.335 84.806 C 170.009 83.906,172.073 83.348,172.914 84.109 M178.768 84.605 C 179.313 85.697,179.107 85.988,177.787 85.988 C 176.844 85.988,176.681 86.049,176.744 86.382 C 176.825 86.810,178.053 87.088,178.053 86.678 C 178.053 86.384,178.653 86.358,178.830 86.645 C 179.274 87.364,177.013 87.892,176.160 87.268 C 175.500 86.786,175.426 85.111,176.031 84.344 C 176.781 83.393,178.232 83.532,178.768 84.605 M181.429 84.074 C 181.429 84.260,181.279 84.412,181.096 84.412 C 180.724 84.412,180.564 84.936,180.476 86.436 C 180.351 88.556,179.629 87.899,179.629 85.666 L 179.629 83.737 180.529 83.737 C 181.179 83.737,181.429 83.830,181.429 84.074 M190.586 84.329 C 191.547 85.796,190.791 87.563,189.203 87.563 C 187.993 87.563,187.507 87.015,187.507 85.650 C 187.507 83.772,189.625 82.863,190.586 84.329 M200.434 84.169 C 201.076 84.879,201.141 86.217,200.568 86.944 C 199.507 88.290,197.411 87.430,197.411 85.650 C 197.411 84.020,199.412 83.040,200.434 84.169 M202.318 85.369 C 202.427 87.873,203.489 87.499,203.489 84.956 C 203.489 83.887,203.544 83.737,203.939 83.737 C 204.354 83.737,204.389 83.887,204.389 85.621 L 204.389 87.504 203.047 87.535 C 201.410 87.572,201.238 87.350,201.238 85.199 C 201.238 83.779,201.263 83.709,201.745 83.777 C 202.205 83.843,202.257 83.988,202.318 85.369 M206.963 83.937 C 207.031 84.047,206.834 84.303,206.526 84.505 C 206.032 84.829,205.965 85.032,205.965 86.218 C 205.965 87.413,205.915 87.563,205.515 87.563 C 205.100 87.563,205.065 87.413,205.065 85.650 L 205.065 83.737 205.952 83.737 C 206.440 83.737,206.895 83.827,206.963 83.937 M216.633 84.160 C 217.524 85.145,217.232 85.868,215.912 85.944 C 214.929 86.000,214.729 86.080,214.788 86.394 C 214.878 86.865,215.776 87.021,216.229 86.645 C 216.714 86.243,217.181 86.730,216.778 87.216 C 216.247 87.855,214.626 87.671,214.084 86.910 C 212.760 85.049,215.127 82.495,216.633 84.160 M227.656 84.232 C 227.980 84.750,227.657 85.022,227.117 84.685 C 226.517 84.310,225.999 84.343,225.999 84.755 C 225.999 84.955,226.276 85.154,226.663 85.231 C 227.657 85.430,228.157 86.083,227.893 86.839 C 227.530 87.877,224.873 87.797,224.873 86.748 C 224.873 86.577,225.076 86.438,225.324 86.438 C 225.571 86.438,225.774 86.539,225.774 86.663 C 225.774 86.787,226.086 86.888,226.468 86.888 C 227.327 86.888,227.251 86.446,226.320 86.032 C 225.171 85.521,224.988 85.386,224.910 84.990 C 224.695 83.899,227.041 83.251,227.656 84.232 M176.852 84.562 C 176.479 84.936,176.743 85.312,177.378 85.312 C 177.805 85.312,178.053 85.197,178.053 84.999 C 178.053 84.553,177.179 84.235,176.852 84.562 M188.640 84.847 C 188.099 85.859,188.484 86.972,189.333 86.851 C 189.777 86.789,189.883 86.626,189.941 85.916 C 190.050 84.598,189.164 83.870,188.640 84.847 M198.633 84.710 C 198.299 85.582,198.634 86.775,199.212 86.775 C 200.034 86.775,200.086 84.569,199.267 84.452 C 198.976 84.411,198.706 84.520,198.633 84.710 M215.025 84.558 C 214.452 84.795,214.734 85.312,215.436 85.312 C 215.972 85.312,216.111 85.224,216.052 84.921 C 215.974 84.517,215.517 84.355,215.025 84.558 M218.721 84.562 C 218.347 84.936,218.611 85.312,219.246 85.312 C 219.673 85.312,219.921 85.197,219.921 84.999 C 219.921 84.553,219.048 84.235,218.721 84.562 M222.159 85.009 C 221.856 85.806,222.185 86.756,222.796 86.846 C 223.181 86.903,223.300 86.767,223.418 86.138 C 223.688 84.700,222.635 83.757,222.159 85.009 M171.075 86.438 C 171.075 86.945,171.720 87.053,172.155 86.618 C 172.593 86.180,172.469 85.988,171.750 85.988 C 171.225 85.988,171.075 86.088,171.075 86.438  M -25 0 L -5 0 L -5 20 L -25 20 Z M 405 0 L 425 0 L 425 20 L 405 20 Z" stroke="none" fill="#9b2c54" fill-rule="evenodd" transform="translate(30,0)"></path><path id="path1" d="M147.545 7.710 C 147.486 7.864,147.414 15.436,147.383 24.536 L 147.327 41.080 146.201 41.193 L 145.076 41.306 145.076 44.007 L 145.076 46.708 153.066 46.708 L 161.056 46.708 161.220 45.397 C 162.078 38.529,170.606 34.755,176.344 38.703 C 178.802 40.394,180.754 43.729,180.754 46.236 L 180.754 46.820 195.805 46.820 L 210.855 46.820 211.004 45.557 C 212.246 34.985,227.878 34.219,230.192 44.616 C 230.393 45.519,230.593 46.387,230.637 46.545 C 230.698 46.766,231.560 46.817,234.379 46.770 L 238.042 46.708 238.101 38.803 C 238.147 32.649,238.097 30.848,237.876 30.672 C 237.534 30.400,229.694 27.012,229.406 27.012 C 229.126 27.012,229.012 26.699,226.227 18.290 C 223.957 11.437,223.748 10.663,223.748 9.117 L 223.748 7.428 185.699 7.428 C 155.467 7.428,147.629 7.486,147.545 7.710 M153.606 12.736 C 153.681 12.932,153.742 14.097,153.742 15.325 C 153.742 17.160,153.802 17.558,154.080 17.558 C 154.358 17.558,154.418 17.150,154.421 15.250 C 154.425 12.834,154.589 12.225,155.175 12.450 C 155.459 12.559,155.540 13.057,155.592 15.015 C 155.644 16.997,155.718 17.445,155.993 17.445 C 156.266 17.445,156.352 16.970,156.443 14.969 C 156.547 12.681,156.590 12.493,157.006 12.493 C 157.426 12.493,157.461 12.664,157.520 15.040 C 157.577 17.307,157.627 17.580,157.970 17.514 C 158.304 17.450,158.366 17.091,158.420 14.910 C 158.479 12.566,158.517 12.380,158.927 12.380 C 159.349 12.380,159.370 12.550,159.370 15.966 C 159.370 19.893,159.310 20.088,158.021 20.371 L 157.344 20.520 157.344 25.830 C 157.344 31.630,157.272 31.964,156.032 31.964 C 154.695 31.964,154.643 31.735,154.643 25.869 L 154.643 20.520 153.957 20.369 C 152.550 20.060,152.392 19.629,152.392 16.097 C 152.392 12.949,152.515 12.380,153.200 12.380 C 153.348 12.380,153.530 12.541,153.606 12.736 M173.663 12.807 C 178.954 14.465,181.911 19.820,180.327 24.873 C 176.915 35.759,161.171 33.486,161.171 22.108 C 161.171 15.684,167.591 10.904,173.663 12.807 M186.624 13.038 L 187.282 13.696 187.282 22.330 C 187.282 31.857,187.267 31.964,185.935 31.964 C 184.625 31.964,184.356 31.209,184.356 27.544 C 184.356 24.580,184.322 24.311,183.950 24.311 C 183.076 24.311,183.005 23.929,183.005 19.256 C 183.005 16.773,183.106 14.387,183.230 13.955 C 183.698 12.324,185.439 11.854,186.624 13.038 M221.423 15.138 C 221.565 15.364,224.584 24.271,225.199 26.280 L 225.354 26.787 218.811 26.787 L 212.268 26.787 212.268 20.822 L 212.268 14.856 216.757 14.856 C 220.103 14.856,221.290 14.928,221.423 15.138 M169.499 15.291 C 163.398 16.700,161.900 24.540,167.076 27.975 C 172.739 31.734,179.884 25.919,177.386 19.584 C 176.193 16.559,172.564 14.584,169.499 15.291 M169.162 40.040 C 163.457 41.540,162.062 49.316,166.911 52.587 C 172.634 56.448,179.805 50.865,177.477 44.360 C 176.342 41.185,172.465 39.171,169.162 40.040 M218.908 40.040 C 213.616 41.431,211.976 48.369,216.069 52.043 C 219.577 55.192,225.112 54.071,227.059 49.819 C 229.512 44.461,224.583 38.547,218.908 40.040 M172.538 43.272 C 175.202 44.609,175.631 48.330,173.312 49.982 C 170.182 52.211,165.979 49.288,167.174 45.714 C 167.978 43.309,170.408 42.203,172.538 43.272 M222.409 43.338 C 225.641 45.009,225.217 49.706,221.751 50.639 C 218.501 51.515,215.677 48.045,217.204 45.052 C 218.232 43.035,220.427 42.313,222.409 43.338  M -25 0 L -5 0 L -5 20 L -25 20 Z M 405 0 L 425 0 L 425 20 L 405 20 Z" stroke="none" fill="#050404" fill-rule="evenodd" transform="translate(490,0)"></path><path id="path2" d="M135.284 57.053 L 135.284 58.056 137.029 58.122 L 138.773 58.188 138.832 67.811 L 138.891 77.434 140.236 77.434 L 141.582 77.434 141.641 67.811 L 141.699 58.188 143.444 58.122 L 145.189 58.056 145.189 57.053 L 145.189 56.050 140.236 56.050 L 135.284 56.050 135.284 57.053 M150.814 56.218 C 150.811 56.416,149.776 61.411,148.796 65.954 C 148.543 67.130,148.137 69.055,147.895 70.231 C 147.046 74.357,146.582 76.495,146.433 76.962 C 146.293 77.405,146.366 77.434,147.610 77.434 L 148.936 77.434 149.196 76.140 C 149.339 75.428,149.585 74.237,149.742 73.495 L 150.028 72.144 152.225 72.080 C 154.776 72.005,154.627 71.866,155.074 74.733 C 155.531 77.658,155.389 77.434,156.785 77.434 C 158.249 77.434,158.240 77.467,157.585 74.535 C 157.347 73.468,156.934 71.581,156.668 70.343 C 156.402 69.105,156.046 67.485,155.876 66.742 C 155.707 65.999,155.462 64.834,155.331 64.153 C 155.200 63.472,154.891 62.003,154.645 60.889 C 154.399 59.775,154.080 58.230,153.936 57.456 L 153.676 56.050 152.246 56.050 C 151.459 56.050,150.815 56.125,150.814 56.218 M160.720 66.742 L 160.720 77.434 162.057 77.434 L 163.393 77.434 163.464 73.438 C 163.533 69.484,163.541 69.433,164.173 68.458 C 164.930 67.294,165.083 67.381,165.886 69.443 C 166.176 70.186,166.587 71.199,166.800 71.694 C 167.013 72.189,167.624 73.683,168.157 75.014 L 169.126 77.434 170.438 77.434 C 171.160 77.434,171.750 77.380,171.750 77.314 C 171.750 77.248,171.590 76.818,171.394 76.357 C 171.198 75.897,170.587 74.406,170.036 73.044 C 169.486 71.683,168.942 70.366,168.827 70.118 C 168.713 69.871,168.359 69.010,168.040 68.205 C 167.722 67.400,167.363 66.566,167.243 66.351 C 166.918 65.773,166.972 65.243,167.458 64.238 C 167.832 63.463,169.796 59.038,170.766 56.781 L 171.081 56.050 169.835 56.050 L 168.589 56.050 166.236 60.872 C 164.941 63.525,163.779 65.760,163.652 65.838 C 163.497 65.934,163.421 64.346,163.421 61.015 L 163.421 56.050 162.071 56.050 L 160.720 56.050 160.720 66.742 M173.776 66.742 L 173.776 77.434 177.940 77.434 L 182.105 77.434 182.105 76.428 L 182.105 75.422 179.347 75.359 L 176.590 75.295 176.528 71.611 C 176.452 67.125,176.350 67.304,178.981 67.304 L 180.979 67.304 180.979 66.404 L 180.979 65.504 179.010 65.500 C 176.303 65.495,176.454 65.729,176.527 61.660 L 176.590 58.188 179.235 58.125 L 181.880 58.061 181.880 57.055 L 181.880 56.050 177.828 56.050 L 173.776 56.050 173.776 66.742 M195.720 56.526 C 193.172 57.878,193.022 58.440,193.022 66.629 C 193.022 74.185,193.084 74.565,194.569 76.151 C 196.416 78.122,201.498 77.907,203.097 75.791 C 205.107 73.129,205.024 59.650,202.984 57.458 C 201.624 55.998,197.670 55.491,195.720 56.526 M207.541 64.354 C 207.541 76.419,207.992 77.434,213.350 77.434 C 218.160 77.434,218.796 75.843,218.796 63.801 L 218.796 56.050 217.445 56.050 L 216.095 56.050 216.095 64.112 C 216.095 74.529,215.867 75.408,213.168 75.408 C 210.401 75.408,210.242 74.814,210.242 64.498 L 210.242 56.050 208.891 56.050 L 207.541 56.050 207.541 64.354 M220.822 57.062 L 220.822 58.075 222.622 58.075 L 224.423 58.075 224.423 67.755 L 224.423 77.434 225.886 77.434 L 227.349 77.434 227.349 67.755 L 227.349 58.075 229.150 58.075 L 230.951 58.075 230.951 57.062 L 230.951 56.050 225.886 56.050 L 220.822 56.050 220.822 57.062 M239.505 66.742 L 239.505 77.434 240.855 77.434 L 242.206 77.434 242.206 66.742 L 242.206 56.050 240.855 56.050 L 239.505 56.050 239.505 66.742 M245.808 66.742 L 245.808 77.434 246.933 77.434 L 248.059 77.434 248.059 70.357 C 248.059 61.590,248.013 61.671,250.092 66.742 C 250.958 68.853,251.161 69.330,251.984 71.187 C 252.163 71.590,252.815 73.134,253.434 74.620 L 254.558 77.321 255.473 77.391 L 256.387 77.460 256.387 66.755 L 256.387 56.050 255.262 56.050 L 254.136 56.050 254.136 63.046 C 254.136 67.884,254.062 70.019,253.897 69.963 C 253.676 69.890,252.735 67.783,248.711 58.357 L 247.726 56.050 246.767 56.050 L 245.808 56.050 245.808 66.742 M200.344 58.452 C 201.545 59.162,201.688 60.032,201.688 66.611 C 201.688 74.476,201.370 75.408,198.682 75.408 C 195.922 75.408,195.723 74.825,195.723 66.742 C 195.723 59.681,195.784 59.285,197.010 58.427 C 197.677 57.959,199.533 57.974,200.344 58.452 M152.803 62.352 C 153.347 65.525,153.959 68.794,154.104 69.297 C 154.313 70.020,153.912 70.224,152.279 70.224 C 150.354 70.224,150.340 70.205,150.729 68.089 C 150.910 67.100,151.212 65.380,151.399 64.266 C 152.089 60.150,152.362 59.777,152.803 62.352 M184.399 69.612 L 184.468 70.568 187.226 70.632 L 189.983 70.695 189.983 69.675 L 189.983 68.655 187.156 68.655 L 184.330 68.655 184.399 69.612 M223.734 83.512 C 223.726 84.007,223.720 84.969,223.720 85.650 C 223.720 87.343,223.719 87.338,223.973 87.338 C 224.109 87.338,224.198 86.400,224.198 84.975 C 224.198 83.549,224.109 82.611,223.973 82.611 C 223.849 82.611,223.742 83.016,223.734 83.512 M167.028 83.087 C 164.378 84.145,165.667 88.157,168.360 87.235 C 168.786 87.089,169.182 86.828,169.239 86.655 C 169.319 86.416,169.201 86.434,168.754 86.727 C 167.364 87.637,166.010 86.884,166.010 85.200 C 166.010 83.626,167.731 82.579,168.599 83.624 C 168.923 84.015,169.274 84.068,169.274 83.725 C 169.274 83.536,167.897 82.795,167.649 82.851 C 167.614 82.858,167.335 82.965,167.028 83.087 M183.680 83.061 C 183.680 83.185,183.984 83.286,184.356 83.286 L 185.031 83.286 185.031 85.299 C 185.031 88.024,185.445 88.183,185.529 85.489 L 185.594 83.399 186.325 83.328 C 187.734 83.193,187.041 82.836,185.369 82.836 C 184.393 82.836,183.680 82.931,183.680 83.061 M193.365 83.005 C 193.369 83.098,193.723 83.726,194.153 84.401 C 194.693 85.249,194.935 85.894,194.935 86.484 C 194.935 86.954,195.037 87.338,195.160 87.338 C 195.284 87.338,195.385 86.917,195.385 86.401 C 195.385 85.736,195.589 85.147,196.090 84.367 C 196.477 83.763,196.734 83.210,196.662 83.137 C 196.589 83.064,196.246 83.470,195.901 84.039 C 195.119 85.327,195.121 85.327,194.281 83.962 C 193.631 82.904,193.352 82.613,193.365 83.005 M209.613 85.151 L 209.658 87.451 209.734 85.594 C 209.828 83.289,209.901 83.292,211.342 85.650 C 212.838 88.099,212.952 88.070,212.902 85.256 L 212.861 82.949 212.733 84.696 C 212.663 85.657,212.519 86.449,212.414 86.455 C 212.228 86.466,210.247 83.544,210.243 83.254 C 210.243 83.175,210.090 83.051,209.904 82.980 C 209.616 82.869,209.573 83.186,209.613 85.151 M174.331 83.523 C 173.775 84.417,174.463 88.107,175.065 87.463 C 175.161 87.360,175.113 87.231,174.958 87.176 C 174.772 87.110,174.676 86.583,174.676 85.631 C 174.676 84.628,174.762 84.186,174.958 84.183 C 175.152 84.181,175.163 84.129,174.992 84.015 C 174.855 83.924,174.697 83.702,174.639 83.523 C 174.547 83.237,174.508 83.237,174.331 83.523 M170.906 84.111 C 170.303 84.354,170.663 84.583,171.282 84.350 C 172.261 83.980,172.629 84.390,172.571 85.786 C 172.534 86.655,172.622 86.994,172.963 87.292 C 173.379 87.656,173.394 87.654,173.251 87.264 C 173.169 87.037,173.101 86.360,173.101 85.760 C 173.101 84.232,172.229 83.577,170.906 84.111 M176.421 84.205 C 175.672 84.641,175.873 86.797,176.702 87.226 C 177.353 87.562,179.051 87.135,178.651 86.736 C 178.586 86.671,178.301 86.779,178.017 86.978 C 177.358 87.439,177.246 87.432,176.702 86.888 C 175.925 86.111,176.123 85.793,177.432 85.718 C 178.363 85.664,178.628 85.564,178.690 85.239 C 178.871 84.285,177.420 83.623,176.421 84.205 M179.854 85.815 C 179.854 88.023,180.232 87.940,180.342 85.708 C 180.394 84.644,180.332 84.159,180.135 84.083 C 179.924 84.003,179.854 84.436,179.854 85.815 M188.282 84.281 C 187.610 84.772,187.669 86.561,188.376 87.133 C 189.138 87.750,189.388 87.664,188.735 87.011 C 187.813 86.089,188.098 84.187,189.158 84.187 C 190.174 84.187,190.700 86.200,189.865 86.893 C 189.676 87.049,189.575 87.230,189.639 87.294 C 189.975 87.631,190.658 86.530,190.658 85.650 C 190.658 84.168,189.415 83.452,188.282 84.281 M198.255 84.205 C 197.507 84.641,197.708 86.797,198.537 87.226 C 199.698 87.826,200.563 87.206,200.563 85.773 C 200.563 84.168,199.527 83.464,198.255 84.205 M201.774 85.519 C 201.793 86.727,201.887 87.218,202.113 87.293 C 202.334 87.366,202.367 87.305,202.226 87.086 C 202.116 86.915,201.963 86.117,201.887 85.312 L 201.748 83.849 201.774 85.519 M203.677 85.430 C 203.595 87.022,203.642 87.338,203.958 87.338 C 204.071 87.338,204.164 86.579,204.164 85.650 C 204.164 83.577,203.781 83.404,203.677 85.430 M205.290 85.622 C 205.290 86.616,205.385 87.338,205.515 87.338 C 205.639 87.338,205.740 86.825,205.740 86.198 C 205.740 85.571,205.855 84.836,205.996 84.566 C 206.136 84.296,206.171 84.149,206.073 84.241 C 205.974 84.333,205.758 84.295,205.592 84.157 C 205.344 83.951,205.290 84.213,205.290 85.622 M214.441 84.373 C 213.780 85.104,213.941 86.716,214.722 87.177 C 215.654 87.727,215.705 87.659,214.937 86.891 C 214.084 86.038,214.260 85.763,215.658 85.763 C 216.685 85.763,216.770 85.721,216.770 85.216 C 216.770 84.069,215.223 83.509,214.441 84.373 M218.289 84.205 C 217.541 84.641,217.741 86.797,218.571 87.226 C 219.221 87.562,220.919 87.135,220.519 86.736 C 220.454 86.671,220.169 86.779,219.886 86.978 C 219.226 87.439,219.114 87.432,218.571 86.888 C 217.761 86.078,217.982 85.763,219.358 85.763 C 220.507 85.763,220.597 85.724,220.597 85.235 C 220.597 84.209,219.286 83.624,218.289 84.205 M221.851 84.315 C 221.279 84.888,221.374 86.776,221.997 87.213 C 222.685 87.695,223.082 87.647,222.448 87.159 C 221.632 86.531,221.534 85.254,222.248 84.541 C 222.612 84.177,222.711 83.962,222.516 83.962 C 222.344 83.962,222.045 84.121,221.851 84.315 M225.605 84.111 C 224.910 84.391,225.312 85.286,226.337 85.739 C 227.370 86.196,227.569 86.566,227.068 87.096 C 226.836 87.341,226.875 87.348,227.293 87.133 C 228.156 86.689,227.921 86.098,226.674 85.580 C 225.053 84.906,225.299 83.739,226.932 84.356 C 227.286 84.489,227.575 84.516,227.575 84.416 C 227.575 84.033,226.291 83.834,225.605 84.111 M178.151 84.685 C 178.588 85.308,178.207 85.604,177.109 85.495 C 176.277 85.413,176.086 85.061,176.596 84.551 C 177.104 84.042,177.740 84.097,178.151 84.685 M199.887 84.407 C 200.412 84.739,200.341 86.615,199.788 87.019 C 199.214 87.438,199.072 87.423,198.537 86.888 C 197.356 85.707,198.531 83.550,199.887 84.407 M216.016 84.359 C 216.636 84.755,216.454 85.423,215.705 85.495 C 214.590 85.603,214.207 85.311,214.646 84.685 C 214.997 84.183,215.538 84.054,216.016 84.359 M220.020 84.685 C 220.456 85.308,220.075 85.604,218.977 85.495 C 218.146 85.413,217.954 85.061,218.464 84.551 C 218.972 84.042,219.608 84.097,220.020 84.685 M170.663 85.734 C 170.162 86.052,170.436 87.149,171.075 87.384 L 171.638 87.590 171.119 87.106 C 170.631 86.651,170.621 86.589,170.955 86.080 C 171.317 85.528,171.202 85.392,170.663 85.734 M225.098 86.770 C 225.098 86.901,226.359 87.564,226.607 87.562 C 226.706 87.562,226.455 87.359,226.050 87.112 C 225.296 86.653,225.098 86.582,225.098 86.770  M -25 0 L -5 0 L -5 20 L -25 20 Z M 405 0 L 425 0 L 425 20 L 405 20 Z" stroke="none" fill="#f7f2ec" fill-rule="evenodd" transform="translate(950,0)"></path><path id="path3" d="M137.704 55.992 C 139.097 56.032,141.376 56.032,142.769 55.992 C 144.162 55.953,143.022 55.921,140.236 55.921 C 137.451 55.921,136.311 55.953,137.704 55.992 M151.660 55.987 C 152.062 56.037,152.721 56.037,153.123 55.987 C 153.526 55.937,153.196 55.896,152.392 55.896 C 151.587 55.896,151.258 55.937,151.660 55.987 M161.339 55.987 C 161.742 56.037,162.400 56.037,162.802 55.987 C 163.205 55.937,162.876 55.896,162.071 55.896 C 161.266 55.896,160.937 55.937,161.339 55.987 M169.222 55.988 C 169.626 56.038,170.234 56.037,170.572 55.985 C 170.911 55.934,170.580 55.893,169.837 55.894 C 169.094 55.895,168.817 55.937,169.222 55.988 M175.746 55.992 C 176.891 56.033,178.765 56.033,179.910 55.992 C 181.055 55.951,180.118 55.918,177.828 55.918 C 175.537 55.918,174.600 55.951,175.746 55.992 M208.164 55.988 C 208.568 56.038,209.176 56.037,209.514 55.985 C 209.853 55.934,209.522 55.893,208.779 55.894 C 208.036 55.895,207.759 55.937,208.164 55.988 M217.386 55.985 L 218.790 56.071 218.854 63.207 L 218.918 70.343 218.913 63.140 L 218.908 55.937 217.445 55.918 L 215.982 55.899 217.386 55.985 M223.367 55.993 C 224.828 56.032,227.158 56.032,228.544 55.992 C 229.930 55.953,228.734 55.921,225.886 55.921 C 223.039 55.921,221.905 55.953,223.367 55.993 M240.124 55.987 C 240.526 56.037,241.185 56.037,241.587 55.987 C 241.989 55.937,241.660 55.896,240.855 55.896 C 240.051 55.896,239.721 55.937,240.124 55.987 M246.033 55.950 C 246.869 56.132,248.017 56.164,247.917 56.002 C 247.856 55.905,247.332 55.836,246.751 55.851 C 246.170 55.865,245.847 55.910,246.033 55.950 M254.646 55.986 C 254.988 56.038,255.494 56.036,255.771 55.983 C 256.048 55.929,255.768 55.887,255.149 55.889 C 254.530 55.890,254.304 55.934,254.646 55.986 M176.793 61.902 C 176.793 63.821,176.827 64.606,176.870 63.647 C 176.912 62.687,176.912 61.117,176.870 60.158 C 176.827 59.198,176.793 59.983,176.793 61.902 M227.349 68.025 C 227.288 73.311,227.314 77.560,227.408 77.465 C 227.502 77.371,227.553 73.046,227.521 67.853 L 227.462 58.413 227.349 68.025 M248.283 70.839 C 248.222 74.578,248.249 77.559,248.343 77.464 C 248.438 77.370,248.489 74.310,248.456 70.666 L 248.396 64.041 248.283 70.839 M176.794 71.469 C 176.794 73.573,176.828 74.465,176.870 73.449 C 176.911 72.434,176.911 70.712,176.870 69.623 C 176.829 68.533,176.795 69.364,176.794 71.469 M210.294 71.356 C 210.294 71.790,210.341 71.967,210.397 71.750 C 210.454 71.533,210.454 71.179,210.397 70.962 C 210.341 70.746,210.294 70.923,210.294 71.356 M182.169 76.421 C 182.171 77.040,182.214 77.266,182.266 76.924 C 182.318 76.582,182.317 76.076,182.263 75.799 C 182.210 75.522,182.167 75.802,182.169 76.421 M198.258 77.818 C 198.538 77.872,198.943 77.870,199.159 77.814 C 199.374 77.757,199.145 77.713,198.649 77.716 C 198.154 77.718,197.978 77.764,198.258 77.818 M212.774 77.814 C 212.991 77.871,213.346 77.871,213.562 77.814 C 213.779 77.758,213.602 77.711,213.168 77.711 C 212.735 77.711,212.558 77.758,212.774 77.814 M223.610 82.707 C 223.543 82.884,223.532 83.264,223.587 83.551 C 223.665 83.960,223.693 83.918,223.717 83.361 C 223.734 82.969,223.875 82.598,224.029 82.535 C 224.250 82.446,224.248 82.418,224.022 82.404 C 223.864 82.394,223.678 82.531,223.610 82.707 M205.142 85.650 C 205.143 86.640,205.182 87.018,205.230 86.488 C 205.277 85.959,205.277 85.148,205.228 84.687 C 205.180 84.226,205.141 84.660,205.142 85.650 M195.442 86.550 C 195.445 87.046,195.491 87.222,195.545 86.942 C 195.599 86.662,195.596 86.256,195.540 86.041 C 195.484 85.826,195.440 86.055,195.442 86.550  M -25 0 L -5 0 L -5 20 L -25 20 Z M 405 0 L 425 0 L 425 20 L 405 20 Z" stroke="none" fill="#b56c84" fill-rule="evenodd" transform="translate(30,285)"></path><path id="path4" d="M198.030 55.987 C 198.433 56.037,199.091 56.037,199.494 55.987 C 199.896 55.937,199.567 55.896,198.762 55.896 C 197.957 55.896,197.628 55.937,198.030 55.987 M135.123 57.062 C 135.125 57.681,135.169 57.908,135.221 57.566 C 135.272 57.224,135.271 56.717,135.218 56.440 C 135.164 56.163,135.122 56.443,135.123 57.062 M145.226 56.997 L 145.189 58.056 143.444 58.122 L 141.699 58.188 141.696 67.811 L 141.692 77.434 141.755 67.867 L 141.817 58.301 143.510 58.301 C 145.400 58.301,145.500 58.219,145.354 56.805 C 145.268 55.973,145.263 55.981,145.226 56.997 M160.604 66.742 L 160.608 77.546 161.903 77.565 L 163.199 77.583 161.962 77.497 L 160.725 77.412 160.663 66.674 L 160.601 55.937 160.604 66.742 M181.917 56.999 L 181.880 58.061 179.235 58.125 L 176.590 58.188 176.581 61.733 L 176.572 65.279 176.643 61.790 L 176.714 58.301 179.304 58.301 C 182.178 58.301,182.198 58.289,182.045 56.805 C 181.959 55.975,181.954 55.983,181.917 56.999 M207.417 63.815 C 207.417 68.149,207.447 69.889,207.484 67.684 C 207.521 65.478,207.521 61.933,207.484 59.805 C 207.447 57.678,207.417 59.482,207.417 63.815 M215.971 64.266 C 215.971 68.846,216.001 70.688,216.038 68.359 C 216.075 66.030,216.075 62.282,216.038 60.030 C 216.001 57.779,215.971 59.685,215.971 64.266 M220.661 57.062 C 220.663 57.681,220.706 57.908,220.758 57.566 C 220.810 57.224,220.808 56.717,220.755 56.440 C 220.702 56.163,220.659 56.443,220.661 57.062 M239.389 66.742 L 239.392 77.546 240.688 77.565 L 241.983 77.583 240.746 77.497 L 239.509 77.412 239.447 66.674 L 239.386 55.937 239.389 66.742 M253.964 62.746 C 253.924 67.863,253.844 69.555,253.641 69.555 C 253.433 69.555,253.432 69.617,253.637 69.822 C 254.119 70.303,254.143 69.916,254.080 62.893 L 254.017 55.937 253.964 62.746 M170.211 57.972 C 169.834 58.800,169.906 58.977,170.314 58.224 C 170.504 57.873,170.618 57.543,170.566 57.492 C 170.515 57.440,170.355 57.657,170.211 57.972 M154.006 57.963 C 154.002 58.210,154.086 58.616,154.192 58.863 C 154.439 59.437,154.439 58.845,154.192 58.075 C 154.048 57.623,154.011 57.601,154.006 57.963 M137.026 58.237 L 138.656 58.320 138.715 67.933 L 138.773 77.546 140.069 77.565 L 141.364 77.583 140.127 77.497 L 138.891 77.412 138.832 67.800 L 138.773 58.188 137.085 58.171 L 135.397 58.154 137.026 58.237 M197.060 58.430 C 196.820 58.625,196.758 58.715,196.923 58.631 C 197.087 58.546,197.492 58.396,197.823 58.296 C 198.306 58.150,198.333 58.110,197.961 58.095 C 197.706 58.084,197.301 58.235,197.060 58.430 M199.006 58.156 C 199.057 58.201,199.403 58.305,199.775 58.388 C 200.268 58.499,200.359 58.478,200.113 58.311 C 199.809 58.105,198.780 57.961,199.006 58.156 M221.897 58.241 C 222.426 58.288,223.237 58.287,223.698 58.239 C 224.159 58.191,223.725 58.152,222.735 58.153 C 221.745 58.153,221.367 58.193,221.897 58.241 M228.200 58.241 C 228.729 58.288,229.539 58.287,230.000 58.239 C 230.461 58.191,230.028 58.152,229.038 58.153 C 228.047 58.153,227.670 58.193,228.200 58.241 M203.843 58.976 C 203.926 59.285,204.088 59.690,204.202 59.876 C 204.347 60.111,204.365 60.042,204.260 59.651 C 204.178 59.342,204.016 58.936,203.901 58.751 C 203.756 58.516,203.739 58.585,203.843 58.976 M201.409 64.793 C 201.504 72.713,201.595 73.480,201.639 66.742 C 201.663 63.275,201.607 60.322,201.516 60.178 C 201.425 60.035,201.377 62.111,201.409 64.793 M152.072 60.923 C 151.995 61.125,151.984 61.344,152.049 61.409 C 152.114 61.474,152.174 61.383,152.182 61.208 C 152.192 61.020,152.277 61.073,152.392 61.339 C 152.578 61.773,152.586 61.772,152.601 61.296 C 152.621 60.681,152.262 60.427,152.072 60.923 M195.708 66.629 C 195.708 69.786,195.740 71.078,195.779 69.499 C 195.817 67.921,195.817 65.338,195.779 63.759 C 195.740 62.181,195.708 63.472,195.708 66.629 M204.487 66.629 C 204.487 69.662,204.519 70.903,204.558 69.387 C 204.597 67.870,204.597 65.388,204.558 63.872 C 204.519 62.355,204.487 63.596,204.487 66.629 M192.780 66.629 C 192.780 69.291,192.812 70.380,192.852 69.049 C 192.892 67.718,192.892 65.540,192.852 64.209 C 192.812 62.878,192.780 63.967,192.780 66.629 M248.202 63.184 C 248.123 63.263,248.059 66.496,248.059 70.368 L 248.059 77.409 247.044 77.499 L 246.030 77.588 247.100 77.567 L 248.171 77.546 248.231 70.700 C 248.268 66.407,248.377 63.749,248.523 63.573 C 248.764 63.283,248.466 62.921,248.202 63.184 M177.884 65.444 C 178.472 65.490,179.434 65.490,180.023 65.444 C 180.611 65.398,180.129 65.360,178.953 65.360 C 177.777 65.360,177.296 65.398,177.884 65.444 M177.884 67.470 C 178.472 67.516,179.434 67.516,180.023 67.470 C 180.611 67.424,180.129 67.386,178.953 67.386 C 177.777 67.386,177.296 67.424,177.884 67.470 M176.520 71.399 C 176.496 73.466,176.553 75.204,176.646 75.261 C 176.739 75.319,176.788 74.185,176.756 72.742 C 176.651 68.060,176.563 67.561,176.520 71.399 M184.287 68.574 C 184.077 68.784,184.087 70.402,184.299 70.534 C 184.392 70.591,184.433 70.192,184.389 69.646 L 184.310 68.655 187.134 68.655 L 189.957 68.655 190.049 69.557 L 190.140 70.459 190.118 69.501 L 190.096 68.542 187.270 68.480 C 185.715 68.445,184.373 68.488,184.287 68.574 M151.430 70.168 C 151.830 70.218,152.539 70.219,153.006 70.170 C 153.473 70.121,153.146 70.080,152.279 70.079 C 151.412 70.078,151.030 70.118,151.430 70.168 M150.063 72.200 C 150.006 72.293,151.003 72.369,152.279 72.369 C 153.555 72.369,154.553 72.293,154.495 72.200 C 154.438 72.107,153.441 72.032,152.279 72.032 C 151.118 72.032,150.120 72.107,150.063 72.200 M210.274 72.707 C 210.274 72.893,210.361 73.247,210.467 73.495 C 210.589 73.778,210.661 73.820,210.661 73.607 C 210.661 73.421,210.573 73.067,210.467 72.819 C 210.345 72.536,210.274 72.494,210.274 72.707 M215.068 74.530 C 214.984 74.666,214.598 74.915,214.210 75.084 C 213.819 75.254,213.676 75.394,213.887 75.399 C 214.241 75.407,215.720 74.305,215.376 74.290 C 215.291 74.286,215.152 74.394,215.068 74.530 M197.060 75.058 C 197.301 75.250,197.655 75.400,197.848 75.390 C 198.151 75.375,198.153 75.355,197.862 75.247 C 197.676 75.178,197.321 75.029,197.074 74.915 C 196.631 74.711,196.631 74.713,197.060 75.058 M158.037 76.916 C 158.021 77.349,157.873 77.421,156.837 77.493 L 155.656 77.576 156.844 77.617 C 158.051 77.660,158.444 77.390,158.171 76.710 C 158.107 76.551,158.047 76.644,158.037 76.916 M170.512 77.434 L 169.162 77.583 170.443 77.621 C 171.147 77.642,171.786 77.558,171.863 77.434 C 171.939 77.310,171.971 77.226,171.932 77.247 C 171.894 77.267,171.255 77.352,170.512 77.434 M147.162 77.597 C 147.567 77.647,148.175 77.646,148.513 77.595 C 148.851 77.543,148.520 77.502,147.777 77.504 C 147.034 77.505,146.758 77.547,147.162 77.597 M175.858 77.601 C 176.941 77.643,178.714 77.643,179.797 77.601 C 180.881 77.560,179.994 77.526,177.828 77.526 C 175.661 77.526,174.775 77.560,175.858 77.601 M197.811 77.599 C 198.341 77.647,199.151 77.646,199.612 77.597 C 200.073 77.549,199.640 77.510,198.649 77.511 C 197.659 77.512,197.282 77.551,197.811 77.599 M212.218 77.599 C 212.747 77.647,213.557 77.646,214.018 77.597 C 214.479 77.549,214.046 77.510,213.056 77.511 C 212.065 77.512,211.688 77.551,212.218 77.599 M225.042 77.597 C 225.445 77.647,226.103 77.647,226.505 77.597 C 226.908 77.547,226.579 77.506,225.774 77.506 C 224.969 77.506,224.640 77.547,225.042 77.597 M255.093 77.589 C 255.310 77.646,255.664 77.646,255.881 77.589 C 256.097 77.532,255.920 77.486,255.487 77.486 C 255.053 77.486,254.876 77.532,255.093 77.589 M224.245 84.900 C 224.212 86.573,224.113 87.335,223.917 87.414 C 223.696 87.503,223.698 87.532,223.924 87.546 C 224.376 87.573,224.446 87.129,224.366 84.734 L 224.292 82.499 224.245 84.900 M166.293 83.343 C 166.001 83.621,165.922 83.728,166.116 83.580 C 166.311 83.431,166.721 83.210,167.028 83.087 C 167.399 82.939,167.458 82.860,167.204 82.851 C 166.995 82.843,166.585 83.064,166.293 83.343 M183.512 83.061 C 183.568 83.269,183.899 83.411,184.373 83.431 C 185.079 83.460,185.087 83.453,184.469 83.354 C 184.098 83.295,183.710 83.128,183.608 82.985 C 183.482 82.808,183.450 82.833,183.512 83.061 M196.377 83.096 C 196.270 83.269,196.316 83.294,196.514 83.172 C 196.733 83.037,196.773 83.091,196.664 83.374 C 196.576 83.603,196.606 83.704,196.739 83.622 C 197.022 83.447,197.030 82.836,196.749 82.836 C 196.633 82.836,196.465 82.953,196.377 83.096 M209.386 85.144 C 209.349 87.164,209.397 87.563,209.679 87.563 C 209.952 87.563,210.017 87.208,210.017 85.719 C 210.017 84.035,210.046 83.914,210.355 84.313 C 210.683 84.736,210.689 84.736,210.542 84.319 C 210.432 84.005,210.468 83.936,210.676 84.065 C 210.902 84.204,210.908 84.141,210.707 83.764 C 210.413 83.215,210.192 83.121,210.387 83.627 C 210.480 83.870,210.414 83.927,210.154 83.828 C 209.841 83.707,209.786 83.943,209.748 85.570 L 209.704 87.451 209.567 85.087 L 209.430 82.724 209.386 85.144 M212.493 84.650 C 212.493 85.964,212.421 86.420,212.233 86.304 C 212.071 86.203,212.034 86.242,212.136 86.407 C 212.487 86.975,212.720 86.334,212.762 84.680 C 212.805 82.991,212.810 83.006,212.943 85.312 L 213.080 87.676 213.124 85.256 C 213.161 83.236,213.113 82.836,212.831 82.836 C 212.558 82.836,212.493 83.188,212.493 84.650 M167.304 83.442 C 167.521 83.498,167.876 83.498,168.092 83.442 C 168.309 83.385,168.132 83.339,167.698 83.339 C 167.265 83.339,167.088 83.385,167.304 83.442 M185.577 83.587 C 185.514 83.752,185.496 84.739,185.538 85.781 L 185.615 87.676 185.660 85.608 L 185.706 83.540 186.438 83.449 L 187.169 83.358 186.431 83.322 C 185.995 83.301,185.645 83.409,185.577 83.587 M171.300 83.824 C 171.300 83.871,171.598 83.954,171.963 84.008 C 172.328 84.062,172.575 84.022,172.513 83.921 C 172.401 83.741,171.300 83.652,171.300 83.824 M173.947 85.142 C 174.065 87.051,174.188 87.293,174.205 85.650 C 174.213 84.907,174.138 84.172,174.039 84.016 C 173.941 83.860,173.899 84.367,173.947 85.142 M176.615 83.921 C 176.552 84.022,176.800 84.062,177.164 84.008 C 177.529 83.954,177.828 83.871,177.828 83.824 C 177.828 83.652,176.726 83.741,176.615 83.921 M179.723 84.039 C 179.660 84.205,179.643 85.092,179.686 86.009 L 179.764 87.676 179.809 85.806 C 179.841 84.458,179.926 83.980,180.114 84.096 C 180.275 84.195,180.312 84.158,180.213 83.997 C 180.003 83.656,179.866 83.668,179.723 84.039 M180.541 84.165 C 180.344 84.532,180.378 84.576,180.777 84.471 C 181.091 84.389,181.155 84.295,180.973 84.183 C 180.770 84.058,180.779 83.986,181.010 83.894 C 181.214 83.813,181.225 83.766,181.043 83.754 C 180.893 83.745,180.667 83.929,180.541 84.165 M188.282 84.075 C 187.858 84.403,187.858 84.408,188.276 84.262 C 188.571 84.158,188.656 84.192,188.545 84.371 C 188.438 84.544,188.508 84.584,188.752 84.491 C 189.031 84.384,189.052 84.307,188.837 84.174 C 188.652 84.060,188.782 83.965,189.212 83.902 C 189.821 83.811,189.827 83.802,189.295 83.770 C 188.978 83.752,188.522 83.889,188.282 84.075 M198.762 83.824 C 198.762 83.871,199.060 83.954,199.425 84.008 C 199.790 84.062,200.037 84.022,199.975 83.921 C 199.863 83.741,198.762 83.652,198.762 83.824 M201.562 84.029 C 201.494 84.205,201.476 84.946,201.521 85.675 L 201.603 87.001 201.685 85.425 L 201.766 83.849 201.913 85.312 L 202.061 86.775 202.100 85.382 C 202.136 84.072,201.836 83.316,201.562 84.029 M203.934 83.885 C 204.060 83.948,204.164 84.742,204.164 85.650 C 204.164 86.558,204.060 87.352,203.934 87.415 C 203.807 87.478,203.832 87.503,203.990 87.471 C 204.193 87.430,204.277 86.899,204.277 85.650 C 204.277 84.401,204.193 83.870,203.990 83.829 C 203.832 83.797,203.807 83.822,203.934 83.885 M205.646 84.207 C 205.850 84.433,206.177 84.539,206.447 84.469 C 206.756 84.388,206.817 84.296,206.634 84.183 C 206.428 84.055,206.431 83.994,206.649 83.921 C 206.805 83.869,206.566 83.827,206.117 83.827 C 205.365 83.827,205.328 83.856,205.646 84.207 M214.969 83.824 C 214.969 83.871,215.268 83.954,215.632 84.008 C 215.997 84.062,216.245 84.022,216.182 83.921 C 216.070 83.741,214.969 83.652,214.969 83.824 M218.483 83.921 C 218.421 84.022,218.668 84.062,219.033 84.008 C 219.398 83.954,219.696 83.871,219.696 83.824 C 219.696 83.652,218.595 83.741,218.483 83.921 M222.073 83.941 C 222.003 84.053,222.138 84.095,222.372 84.034 C 222.605 83.973,222.865 84.033,222.948 84.167 C 223.031 84.302,223.270 84.409,223.480 84.405 C 223.813 84.399,223.806 84.356,223.423 84.067 C 222.932 83.696,222.263 83.633,222.073 83.941 M225.755 83.793 C 225.590 84.294,225.586 85.084,225.747 85.183 C 225.863 85.255,225.904 85.111,225.839 84.862 C 225.764 84.575,225.833 84.411,226.029 84.408 C 226.270 84.406,226.264 84.354,225.999 84.169 C 225.743 83.990,225.862 83.952,226.490 84.013 C 226.945 84.057,227.268 84.013,227.208 83.915 C 227.111 83.758,225.803 83.648,225.755 83.793 M165.504 85.200 C 165.507 85.695,165.553 85.871,165.607 85.591 C 165.660 85.311,165.658 84.906,165.602 84.691 C 165.546 84.475,165.502 84.705,165.504 85.200 M198.227 84.758 C 198.150 84.959,198.099 85.445,198.115 85.837 C 198.138 86.431,198.171 86.380,198.311 85.537 C 198.490 84.461,198.457 84.158,198.227 84.758 M211.075 84.787 C 211.182 85.066,211.137 85.114,210.899 84.976 C 210.723 84.873,210.658 84.876,210.755 84.983 C 211.135 85.401,211.598 85.292,211.357 84.842 C 211.074 84.313,210.879 84.275,211.075 84.787 M172.425 84.975 C 172.425 85.195,172.205 85.312,171.788 85.312 C 171.414 85.312,171.150 85.434,171.150 85.605 C 171.150 85.799,171.366 85.867,171.788 85.805 C 172.794 85.657,172.656 86.528,171.581 87.106 C 170.830 87.509,170.805 87.549,171.353 87.464 C 171.691 87.412,172.075 87.303,172.206 87.222 C 172.338 87.141,172.618 87.208,172.829 87.371 C 173.184 87.645,173.187 87.634,172.869 87.222 C 172.654 86.943,172.539 86.374,172.563 85.706 C 172.584 85.118,172.562 84.637,172.514 84.637 C 172.465 84.637,172.425 84.789,172.425 84.975 M175.859 85.650 C 175.861 86.145,175.907 86.321,175.961 86.041 C 176.015 85.761,176.013 85.356,175.957 85.141 C 175.900 84.926,175.856 85.155,175.859 85.650 M176.309 85.087 C 176.368 85.308,176.706 85.435,177.282 85.454 C 178.128 85.481,178.132 85.478,177.380 85.379 C 176.947 85.322,176.509 85.157,176.406 85.013 C 176.278 84.833,176.247 84.857,176.309 85.087 M197.693 85.650 C 197.696 86.145,197.742 86.321,197.796 86.041 C 197.850 85.761,197.847 85.356,197.791 85.141 C 197.735 84.926,197.691 85.155,197.693 85.650 M200.620 85.650 C 200.622 86.145,200.668 86.321,200.722 86.041 C 200.776 85.761,200.774 85.356,200.717 85.141 C 200.661 84.926,200.617 85.155,200.620 85.650 M205.781 86.025 C 205.756 86.801,205.630 87.345,205.459 87.414 C 205.238 87.503,205.240 87.532,205.466 87.546 C 205.881 87.571,206.004 87.096,205.907 85.846 L 205.821 84.750 205.781 86.025 M217.727 85.650 C 217.729 86.145,217.776 86.321,217.829 86.041 C 217.883 85.761,217.881 85.356,217.825 85.141 C 217.769 84.926,217.724 85.155,217.727 85.650 M218.177 85.087 C 218.236 85.308,218.574 85.435,219.151 85.454 C 219.997 85.481,220.001 85.478,219.248 85.379 C 218.816 85.322,218.377 85.157,218.274 85.013 C 218.146 84.833,218.115 84.857,218.177 85.087 M221.329 85.650 C 221.331 86.145,221.377 86.321,221.431 86.041 C 221.485 85.761,221.483 85.356,221.426 85.141 C 221.370 84.926,221.326 85.155,221.329 85.650 M215.532 85.312 L 214.631 85.474 215.462 85.505 C 215.919 85.523,216.356 85.436,216.432 85.312 C 216.509 85.189,216.540 85.102,216.502 85.119 C 216.463 85.137,216.027 85.224,215.532 85.312 M226.036 85.510 C 225.797 85.661,225.812 85.729,226.111 85.844 C 226.661 86.055,226.836 86.013,226.449 85.763 C 225.974 85.455,226.554 85.465,227.195 85.775 C 227.670 86.004,227.672 86.001,227.250 85.662 C 226.758 85.268,226.473 85.233,226.036 85.510 M194.796 86.420 C 194.814 87.098,194.930 87.445,195.160 87.507 C 195.392 87.569,195.415 87.539,195.233 87.409 C 195.088 87.305,194.924 86.816,194.870 86.322 C 194.771 85.432,194.770 85.432,194.796 86.420 M166.293 87.057 C 166.585 87.335,166.995 87.557,167.204 87.549 C 167.458 87.540,167.399 87.460,167.028 87.312 C 166.721 87.190,166.311 86.968,166.116 86.820 C 165.922 86.672,166.001 86.778,166.293 87.057 M176.575 87.056 C 176.656 87.612,178.098 87.617,178.180 87.062 C 178.232 86.705,178.183 86.700,177.593 87.005 C 176.851 87.389,176.622 87.425,176.805 87.129 C 176.876 87.013,176.841 86.861,176.726 86.790 C 176.611 86.719,176.543 86.839,176.575 87.056 M198.409 87.056 C 198.451 87.341,198.674 87.451,199.212 87.451 C 199.750 87.451,199.973 87.341,200.015 87.056 C 200.047 86.839,199.979 86.719,199.864 86.790 C 199.749 86.861,199.703 86.997,199.761 87.091 C 199.820 87.186,199.573 87.263,199.212 87.263 C 198.852 87.263,198.605 87.186,198.663 87.091 C 198.721 86.997,198.675 86.861,198.560 86.790 C 198.445 86.719,198.377 86.839,198.409 87.056 M218.443 87.056 C 218.485 87.341,218.708 87.451,219.246 87.451 C 219.784 87.451,220.007 87.341,220.049 87.056 C 220.081 86.839,220.013 86.719,219.898 86.790 C 219.783 86.861,219.737 86.997,219.795 87.091 C 219.854 87.186,219.606 87.263,219.246 87.263 C 218.885 87.263,218.638 87.186,218.697 87.091 C 218.755 86.997,218.709 86.861,218.594 86.790 C 218.479 86.719,218.411 86.839,218.443 87.056 M221.947 86.742 C 221.947 87.176,223.052 87.513,223.440 87.197 C 223.840 86.871,223.834 86.860,223.318 86.972 C 223.019 87.037,222.588 86.990,222.361 86.869 C 222.133 86.747,221.947 86.690,221.947 86.742 M227.001 86.863 C 226.695 87.148,225.692 87.428,225.842 87.185 C 225.910 87.075,225.772 86.984,225.535 86.984 C 225.273 86.984,225.186 87.066,225.312 87.192 C 225.656 87.536,227.066 87.545,227.503 87.205 C 227.895 86.900,227.894 86.893,227.481 87.038 C 227.184 87.143,227.101 87.108,227.213 86.926 C 227.406 86.614,227.300 86.582,227.001 86.863 M167.698 87.113 C 168.132 87.204,168.292 87.292,168.055 87.309 C 167.817 87.325,167.683 87.398,167.756 87.471 C 167.830 87.545,168.113 87.533,168.386 87.447 C 169.055 87.235,168.522 86.885,167.586 86.921 C 166.918 86.947,166.919 86.949,167.698 87.113 M188.708 87.226 C 188.708 87.349,188.927 87.464,189.195 87.481 C 189.464 87.497,189.683 87.396,189.683 87.256 C 189.683 87.115,189.464 87.001,189.195 87.001 C 188.927 87.001,188.708 87.102,188.708 87.226 M202.311 87.208 C 202.381 87.322,202.265 87.348,202.051 87.266 C 201.812 87.175,201.720 87.207,201.809 87.351 C 201.976 87.622,203.219 87.473,203.550 87.142 C 203.702 86.990,203.514 86.930,202.980 86.958 C 202.542 86.981,202.241 87.094,202.311 87.208 M214.485 87.150 C 214.674 87.401,215.027 87.504,215.558 87.461 C 216.679 87.372,216.939 87.001,215.880 87.001 C 215.403 87.001,215.059 87.077,215.116 87.169 C 215.285 87.442,214.861 87.363,214.518 87.057 C 214.252 86.819,214.247 86.834,214.485 87.150  M -25 0 L -5 0 L -5 20 L -25 20 Z M 405 0 L 425 0 L 425 20 L 405 20 Z" stroke="none" fill="#cc94a4" fill-rule="evenodd" transform="translate(490,285)"></path><path id="path5" d="M163.466 60.720 C 163.442 63.351,163.497 65.504,163.590 65.504 C 163.683 65.504,163.733 64.061,163.701 62.296 C 163.595 56.440,163.511 55.881,163.466 60.720 M245.633 66.672 C 245.605 72.576,245.658 77.454,245.751 77.512 C 245.905 77.607,245.902 69.564,245.745 59.764 C 245.711 57.659,245.661 60.768,245.633 66.672 M256.491 66.742 C 256.491 72.684,256.520 75.083,256.556 72.072 C 256.591 69.061,256.591 64.199,256.556 61.267 C 256.520 58.336,256.491 60.799,256.491 66.742 M181.040 66.404 C 181.040 66.961,181.084 67.189,181.138 66.911 C 181.192 66.632,181.192 66.176,181.138 65.898 C 181.084 65.619,181.040 65.847,181.040 66.404 M163.421 73.765 C 163.359 75.895,163.388 77.559,163.484 77.462 C 163.580 77.366,163.630 75.624,163.595 73.590 L 163.533 69.893 163.421 73.765 M177.715 85.763 L 176.590 85.917 177.646 85.952 C 178.226 85.972,178.764 85.886,178.841 85.763 C 178.917 85.639,178.949 85.553,178.910 85.573 C 178.872 85.592,178.334 85.678,177.715 85.763 M219.584 85.763 L 218.458 85.917 219.514 85.952 C 220.095 85.972,220.633 85.886,220.709 85.763 C 220.786 85.639,220.817 85.553,220.779 85.573 C 220.740 85.592,220.203 85.678,219.584 85.763 M215.254 85.924 C 215.596 85.976,216.102 85.974,216.379 85.921 C 216.656 85.868,216.376 85.825,215.757 85.827 C 215.138 85.829,214.911 85.872,215.254 85.924  M -25 0 L -5 0 L -5 20 L -25 20 Z M 405 0 L 425 0 L 425 20 L 405 20 Z" stroke="none" fill="#c48797" fill-rule="evenodd" transform="translate(950,285)"></path><path id="path6" d="M147.439 7.372 C 147.439 7.465,164.605 7.515,185.585 7.483 L 223.730 7.426 223.805 9.284 L 223.881 11.142 223.927 9.173 L 223.973 7.203 185.706 7.203 C 164.660 7.203,147.440 7.279,147.439 7.372 M169.555 12.536 C 169.772 12.592,170.127 12.592,170.343 12.536 C 170.560 12.479,170.383 12.433,169.949 12.433 C 169.516 12.433,169.339 12.479,169.555 12.536 M171.471 12.540 C 171.751 12.593,172.157 12.591,172.372 12.535 C 172.587 12.479,172.358 12.435,171.863 12.437 C 171.367 12.440,171.191 12.486,171.471 12.540 M184.275 12.553 C 184.217 12.649,184.565 12.689,185.050 12.642 C 185.535 12.596,185.931 12.518,185.931 12.469 C 185.931 12.302,184.382 12.380,184.275 12.553 M152.433 16.025 C 152.410 17.844,152.468 19.379,152.560 19.437 C 152.653 19.495,152.703 18.513,152.670 17.256 C 152.562 13.118,152.476 12.667,152.433 16.025 M153.617 15.176 C 153.627 17.162,153.694 17.651,153.967 17.725 C 154.209 17.791,154.227 17.762,154.032 17.623 C 153.857 17.499,153.731 16.582,153.682 15.074 L 153.604 12.718 153.617 15.176 M154.502 15.194 C 154.502 16.556,154.539 17.084,154.584 16.368 C 154.629 15.651,154.629 14.537,154.583 13.892 C 154.538 13.246,154.501 13.832,154.502 15.194 M186.759 13.281 C 186.861 13.467,186.997 17.569,187.062 22.397 L 187.180 31.176 187.231 22.497 C 187.276 14.884,187.238 13.763,186.928 13.380 C 186.733 13.140,186.657 13.095,186.759 13.281 M183.101 19.133 C 183.101 21.795,183.133 22.884,183.173 21.553 C 183.213 20.222,183.213 18.044,183.173 16.714 C 183.133 15.383,183.101 16.472,183.101 19.133 M214.463 15.024 C 215.732 15.065,217.808 15.065,219.077 15.024 C 220.346 14.984,219.308 14.951,216.770 14.951 C 214.232 14.951,213.194 14.984,214.463 15.024 M175.793 17.164 C 176.344 17.752,176.826 18.233,176.862 18.233 C 177.031 18.233,176.852 18.031,175.858 17.098 L 174.789 16.095 175.793 17.164 M161.283 20.034 C 161.198 20.423,161.175 20.788,161.232 20.846 C 161.289 20.903,161.401 20.626,161.480 20.231 C 161.668 19.292,161.486 19.111,161.283 20.034 M180.606 22.172 C 180.607 23.163,180.647 23.540,180.694 23.010 C 180.742 22.481,180.741 21.671,180.693 21.210 C 180.644 20.749,180.605 21.182,180.606 22.172 M223.877 22.735 C 223.960 23.044,224.121 23.450,224.236 23.635 C 224.381 23.870,224.399 23.801,224.294 23.410 C 224.211 23.101,224.050 22.696,223.935 22.510 C 223.790 22.275,223.772 22.344,223.877 22.735 M183.843 24.232 C 184.328 24.337,184.346 24.441,184.415 27.590 L 184.487 30.839 184.478 27.519 L 184.468 24.198 183.905 24.161 C 183.421 24.129,183.412 24.139,183.843 24.232 M175.904 27.068 L 175.014 28.025 175.971 27.135 C 176.860 26.307,177.031 26.111,176.861 26.111 C 176.824 26.111,176.393 26.542,175.904 27.068 M177.603 29.150 C 177.056 29.707,176.659 30.163,176.721 30.163 C 176.783 30.163,177.281 29.707,177.828 29.150 C 178.375 28.593,178.771 28.137,178.709 28.137 C 178.647 28.137,178.149 28.593,177.603 29.150 M157.137 30.882 C 157.127 31.092,156.894 31.421,156.618 31.614 C 156.343 31.806,156.226 31.964,156.358 31.964 C 156.741 31.964,157.402 31.119,157.272 30.795 C 157.193 30.599,157.148 30.627,157.137 30.882 M154.643 31.037 C 154.643 31.256,155.518 32.075,155.612 31.944 C 155.649 31.893,155.445 31.627,155.161 31.353 C 154.876 31.079,154.643 30.937,154.643 31.037 M172.651 37.366 C 173.420 37.613,174.012 37.613,173.438 37.366 C 173.191 37.260,172.786 37.176,172.538 37.180 C 172.176 37.185,172.198 37.221,172.651 37.366 M216.038 38.170 C 215.197 38.627,215.248 38.817,216.095 38.379 C 216.466 38.187,216.770 37.982,216.770 37.923 C 216.770 37.778,216.746 37.787,216.038 38.170 M224.648 37.918 C 224.648 37.979,224.952 38.187,225.324 38.379 C 225.695 38.571,225.999 38.678,225.999 38.616 C 225.999 38.554,225.695 38.346,225.324 38.154 C 224.952 37.962,224.648 37.856,224.648 37.918 M170.456 39.779 C 170.796 39.830,171.353 39.830,171.694 39.779 C 172.034 39.727,171.756 39.685,171.075 39.685 C 170.394 39.685,170.115 39.727,170.456 39.779 M220.203 39.779 C 220.543 39.830,221.100 39.830,221.441 39.779 C 221.781 39.727,221.503 39.685,220.822 39.685 C 220.141 39.685,219.862 39.727,220.203 39.779 M144.963 41.148 C 144.963 41.247,145.343 41.292,145.808 41.247 C 147.255 41.110,147.373 41.021,146.145 40.994 C 145.495 40.980,144.963 41.049,144.963 41.148 M224.873 41.038 C 224.873 41.077,225.203 41.406,225.605 41.770 L 226.337 42.431 225.675 41.699 C 225.059 41.018,224.873 40.864,224.873 41.038 M165.660 42.037 L 164.885 42.881 165.729 42.106 C 166.514 41.384,166.676 41.193,166.504 41.193 C 166.467 41.193,166.087 41.573,165.660 42.037 M214.406 43.444 C 214.214 43.815,214.108 44.119,214.170 44.119 C 214.232 44.119,214.439 43.815,214.631 43.444 C 214.823 43.073,214.930 42.769,214.868 42.769 C 214.806 42.769,214.598 43.073,214.406 43.444 M168.022 44.176 L 167.361 44.907 168.092 44.246 C 168.495 43.882,168.824 43.553,168.824 43.514 C 168.824 43.341,168.638 43.494,168.022 44.176 M180.581 45.920 C 180.581 46.353,180.628 46.531,180.684 46.314 C 180.741 46.097,180.741 45.743,180.684 45.526 C 180.628 45.310,180.581 45.487,180.581 45.920 M213.671 45.920 C 213.671 46.353,213.717 46.531,213.774 46.314 C 213.830 46.097,213.830 45.743,213.774 45.526 C 213.717 45.310,213.671 45.487,213.671 45.920 M216.910 45.591 C 216.833 45.792,216.779 46.126,216.789 46.332 C 216.800 46.539,216.898 46.409,217.007 46.044 C 217.219 45.333,217.144 44.982,216.910 45.591 M174.729 46.820 C 174.729 47.254,174.775 47.431,174.832 47.214 C 174.888 46.998,174.888 46.643,174.832 46.427 C 174.775 46.210,174.729 46.387,174.729 46.820 M213.671 47.721 C 213.671 48.154,213.717 48.331,213.774 48.115 C 213.830 47.898,213.830 47.544,213.774 47.327 C 213.717 47.110,213.671 47.288,213.671 47.721 M223.333 49.457 C 222.369 50.460,222.460 50.579,223.487 49.657 C 223.930 49.259,224.582 48.349,224.375 48.417 C 224.340 48.429,223.871 48.897,223.333 49.457 M167.473 48.917 C 167.473 48.956,167.802 49.285,168.205 49.648 L 168.936 50.310 168.275 49.578 C 167.659 48.896,167.473 48.743,167.473 48.917 M175.900 51.829 L 175.239 52.560 175.971 51.899 C 176.373 51.536,176.702 51.207,176.702 51.168 C 176.702 50.994,176.517 51.147,175.900 51.829 M215.644 51.885 C 216.064 52.319,216.459 52.673,216.521 52.673 C 216.582 52.673,216.289 52.319,215.869 51.885 C 215.449 51.452,215.055 51.097,214.993 51.097 C 214.931 51.097,215.224 51.452,215.644 51.885  M -25 0 L -5 0 L -5 20 L -25 20 Z M 405 0 L 425 0 L 425 20 L 405 20 Z" stroke="none" fill="#4c1424" fill-rule="evenodd" transform="translate(30,570)"></path><path id="path7" d="M147.321 24.086 C 147.321 33.433,147.349 37.257,147.383 32.583 C 147.417 27.909,147.417 20.262,147.383 15.588 C 147.349 10.914,147.321 14.738,147.321 24.086 M224.055 9.342 C 224.056 10.580,224.094 11.057,224.139 10.403 C 224.185 9.749,224.184 8.736,224.138 8.152 C 224.092 7.568,224.055 8.104,224.055 9.342 M152.707 15.982 C 152.707 17.901,152.742 18.686,152.784 17.727 C 152.826 16.767,152.826 15.197,152.784 14.237 C 152.742 13.278,152.707 14.063,152.707 15.982 M153.330 15.012 C 153.309 16.398,153.368 17.578,153.461 17.636 C 153.554 17.694,153.602 16.915,153.569 15.905 C 153.465 12.750,153.369 12.392,153.330 15.012 M155.356 15.125 C 155.335 16.448,155.394 17.578,155.487 17.636 C 155.580 17.694,155.628 16.966,155.595 16.018 C 155.487 12.993,155.395 12.647,155.356 15.125 M156.401 15.307 C 156.363 16.669,156.407 17.783,156.500 17.783 C 156.593 17.783,156.669 16.669,156.669 15.307 C 156.669 12.105,156.492 12.106,156.401 15.307 M167.361 13.176 C 166.798 13.447,166.779 13.479,167.248 13.364 C 167.886 13.208,168.603 12.843,168.261 12.848 C 168.137 12.849,167.732 12.997,167.361 13.176 M157.428 15.419 C 157.429 16.781,157.466 17.309,157.510 16.593 C 157.555 15.876,157.555 14.762,157.510 14.117 C 157.464 13.471,157.428 14.057,157.428 15.419 M183.327 19.021 C 183.327 21.868,183.359 23.002,183.398 21.540 C 183.438 20.079,183.438 17.749,183.398 16.363 C 183.359 14.977,183.327 16.173,183.327 19.021 M169.328 15.043 C 169.173 15.142,169.679 15.184,170.454 15.136 C 172.364 15.018,172.605 14.895,170.962 14.878 C 170.219 14.870,169.484 14.944,169.328 15.043 M212.374 20.822 L 212.380 26.674 218.680 26.674 C 224.543 26.674,224.982 26.647,225.016 26.276 C 225.042 25.997,225.021 25.980,224.947 26.220 C 224.855 26.515,223.994 26.562,218.670 26.562 L 212.501 26.562 212.435 20.765 L 212.369 14.969 212.374 20.822 M163.269 16.263 C 163.018 16.542,162.733 16.922,162.634 17.107 C 162.444 17.466,162.496 17.417,163.408 16.376 C 163.706 16.035,163.900 15.757,163.838 15.757 C 163.776 15.757,163.520 15.985,163.269 16.263 M175.802 16.995 C 176.222 17.428,176.616 17.783,176.678 17.783 C 176.740 17.783,176.447 17.428,176.027 16.995 C 175.607 16.562,175.213 16.207,175.151 16.207 C 175.089 16.207,175.382 16.562,175.802 16.995 M154.132 20.195 C 154.633 20.288,154.635 20.305,154.701 25.620 L 154.768 30.951 154.762 25.549 L 154.755 20.146 154.192 20.125 C 153.711 20.106,153.702 20.116,154.132 20.195 M157.220 20.320 C 157.159 20.478,157.139 22.884,157.175 25.666 L 157.240 30.726 157.292 25.507 L 157.344 20.289 157.963 20.195 L 158.582 20.101 157.956 20.067 C 157.611 20.049,157.280 20.163,157.220 20.320 M163.783 20.615 C 163.592 21.113,163.619 23.468,163.819 23.783 C 163.910 23.926,163.984 23.191,163.984 22.151 C 163.984 20.096,163.984 20.092,163.783 20.615 M161.240 22.172 C 161.242 22.915,161.284 23.192,161.334 22.787 C 161.384 22.383,161.383 21.775,161.331 21.437 C 161.280 21.098,161.239 21.429,161.240 22.172 M178.114 22.060 C 178.114 22.617,178.158 22.845,178.212 22.566 C 178.265 22.288,178.265 21.832,178.212 21.553 C 178.158 21.275,178.114 21.503,178.114 22.060 M184.580 27.641 L 184.692 31.176 184.755 27.817 C 184.790 25.970,184.740 24.379,184.643 24.282 C 184.547 24.186,184.519 25.697,184.580 27.641 M176.015 27.181 L 175.239 28.025 176.083 27.249 C 176.869 26.527,177.031 26.337,176.859 26.337 C 176.821 26.337,176.442 26.716,176.015 27.181 M231.626 27.800 C 231.936 27.977,232.290 28.121,232.414 28.121 C 232.538 28.121,232.386 27.977,232.077 27.800 C 231.767 27.623,231.412 27.478,231.289 27.478 C 231.165 27.478,231.317 27.623,231.626 27.800 M174.339 28.378 C 173.967 28.616,173.779 28.811,173.920 28.811 C 174.061 28.812,174.415 28.613,174.708 28.370 C 175.377 27.812,175.216 27.816,174.339 28.378 M170.347 29.426 C 170.752 29.476,171.360 29.475,171.698 29.424 C 172.036 29.372,171.705 29.331,170.962 29.333 C 170.219 29.334,169.943 29.376,170.347 29.426 M170.793 31.898 C 171.072 31.951,171.528 31.951,171.806 31.898 C 172.085 31.844,171.857 31.800,171.300 31.800 C 170.743 31.800,170.515 31.844,170.793 31.898 M169.888 37.304 C 170.288 37.353,170.997 37.354,171.464 37.306 C 171.931 37.257,171.604 37.216,170.737 37.215 C 169.871 37.214,169.488 37.254,169.888 37.304 M219.635 37.304 C 220.034 37.353,220.743 37.354,221.211 37.306 C 221.678 37.257,221.351 37.216,220.484 37.215 C 219.617 37.214,219.235 37.254,219.635 37.304 M163.974 40.124 L 163.084 41.080 164.041 40.191 C 164.930 39.363,165.101 39.167,164.930 39.167 C 164.894 39.167,164.463 39.598,163.974 40.124 M213.717 40.124 L 213.056 40.855 213.787 40.194 C 214.190 39.831,214.519 39.501,214.519 39.463 C 214.519 39.289,214.333 39.442,213.717 40.124 M218.683 39.842 C 218.399 39.964,218.358 40.036,218.571 40.036 C 218.756 40.036,219.111 39.949,219.358 39.842 C 219.642 39.720,219.684 39.649,219.471 39.649 C 219.285 39.649,218.931 39.736,218.683 39.842 M144.841 43.950 L 144.851 46.933 153.067 46.933 L 161.283 46.933 161.316 46.258 C 161.347 45.616,161.343 45.613,161.244 46.201 L 161.141 46.820 153.059 46.820 L 144.976 46.820 144.903 43.894 L 144.830 40.967 144.841 43.950 M179.758 43.219 C 179.840 43.528,180.002 43.934,180.117 44.119 C 180.262 44.354,180.279 44.285,180.175 43.894 C 180.092 43.585,179.930 43.180,179.816 42.994 C 179.671 42.759,179.653 42.828,179.758 43.219 M170.346 43.153 C 170.626 43.207,171.031 43.205,171.246 43.148 C 171.462 43.092,171.232 43.048,170.737 43.051 C 170.242 43.053,170.066 43.099,170.346 43.153 M220.093 43.153 C 220.373 43.207,220.778 43.205,220.993 43.148 C 221.208 43.092,220.979 43.048,220.484 43.051 C 219.989 43.053,219.813 43.099,220.093 43.153 M163.787 45.141 C 163.710 45.342,163.658 45.777,163.672 46.107 C 163.692 46.557,163.742 46.482,163.874 45.808 C 164.060 44.851,164.019 44.536,163.787 45.141 M213.461 46.820 C 213.461 47.501,213.503 47.780,213.555 47.440 C 213.606 47.099,213.606 46.542,213.555 46.201 C 213.503 45.861,213.461 46.140,213.461 46.820 M178.117 46.933 C 178.119 47.552,178.163 47.779,178.214 47.436 C 178.266 47.094,178.265 46.588,178.211 46.311 C 178.158 46.034,178.116 46.314,178.117 46.933 M167.075 46.820 C 167.075 47.254,167.122 47.431,167.178 47.214 C 167.235 46.998,167.235 46.643,167.178 46.427 C 167.122 46.210,167.075 46.387,167.075 46.820 M210.917 46.448 C 210.917 46.800,209.829 46.822,195.745 46.767 C 187.400 46.735,180.619 46.784,180.676 46.877 C 180.907 47.250,210.921 47.074,211.065 46.698 C 211.138 46.507,211.135 46.288,211.058 46.211 C 210.980 46.133,210.917 46.240,210.917 46.448 M227.856 46.933 C 227.859 47.428,227.905 47.604,227.959 47.324 C 228.013 47.044,228.011 46.639,227.954 46.424 C 227.898 46.209,227.854 46.438,227.856 46.933 M230.333 46.595 C 230.411 46.879,231.057 46.934,234.346 46.942 L 238.267 46.950 234.450 46.880 C 231.765 46.830,230.575 46.727,230.437 46.533 C 230.296 46.334,230.267 46.351,230.333 46.595 M163.650 47.627 C 163.652 47.988,163.750 48.436,163.869 48.621 C 164.015 48.851,164.040 48.672,163.946 48.059 C 163.775 46.946,163.645 46.756,163.650 47.627 M174.344 48.155 C 174.262 48.413,173.927 48.952,173.600 49.354 C 173.086 49.984,173.075 50.023,173.526 49.635 C 174.089 49.149,174.777 47.972,174.601 47.796 C 174.541 47.736,174.426 47.898,174.344 48.155 M225.762 51.941 L 224.986 52.786 225.830 52.010 C 226.616 51.288,226.778 51.097,226.606 51.097 C 226.568 51.097,226.188 51.477,225.762 51.941 M165.222 51.393 C 165.222 51.432,165.551 51.761,165.954 52.124 L 166.685 52.786 166.024 52.054 C 165.408 51.372,165.222 51.219,165.222 51.393 M175.689 52.148 C 175.194 52.592,174.992 52.851,175.239 52.723 C 175.656 52.506,176.900 51.311,176.685 51.332 C 176.633 51.337,176.185 51.704,175.689 52.148 M170.568 54.182 C 170.847 54.236,171.303 54.236,171.581 54.182 C 171.860 54.129,171.632 54.085,171.075 54.085 C 170.518 54.085,170.290 54.129,170.568 54.182 M220.315 54.182 C 220.594 54.236,221.050 54.236,221.328 54.182 C 221.607 54.129,221.379 54.085,220.822 54.085 C 220.264 54.085,220.037 54.129,220.315 54.182  M -25 0 L -5 0 L -5 20 L -25 20 Z M 405 0 L 425 0 L 425 20 L 405 20 Z" stroke="none" fill="#5b1831" fill-rule="evenodd" transform="translate(490,570)"></path><path id="path8" d="M134.924 56.138 C 134.858 56.311,134.839 56.843,134.881 57.320 C 134.952 58.124,134.966 58.101,135.065 57.006 C 135.174 55.800,135.138 55.581,134.924 56.138 M160.373 56.106 C 160.314 56.261,160.292 61.148,160.324 66.967 L 160.383 77.546 160.495 66.685 C 160.557 60.712,160.579 55.824,160.544 55.824 C 160.510 55.824,160.433 55.951,160.373 56.106 M182.101 57.129 L 182.210 58.413 182.284 57.312 C 182.324 56.707,182.275 56.129,182.175 56.029 C 182.074 55.928,182.041 56.423,182.101 57.129 M207.193 56.107 C 207.133 56.263,207.111 59.833,207.144 64.042 L 207.204 71.694 207.316 63.759 C 207.378 59.395,207.400 55.824,207.365 55.824 C 207.330 55.824,207.253 55.952,207.193 56.107 M210.242 63.320 L 210.354 70.793 210.414 63.492 C 210.447 59.477,210.396 56.113,210.301 56.019 C 210.207 55.924,210.180 59.210,210.242 63.320 M239.158 56.106 C 239.098 56.261,239.076 61.148,239.109 66.967 L 239.167 77.546 239.280 66.685 C 239.342 60.712,239.364 55.824,239.329 55.824 C 239.294 55.824,239.217 55.951,239.158 56.106 M253.794 56.106 C 253.620 56.581,253.563 69.319,253.735 69.146 C 253.884 68.998,254.106 55.824,253.960 55.824 C 253.925 55.824,253.851 55.951,253.794 56.106 M173.655 66.742 C 173.655 72.684,173.684 75.083,173.720 72.072 C 173.755 69.061,173.755 64.199,173.720 61.267 C 173.684 58.336,173.655 60.799,173.655 66.742 M242.310 66.742 C 242.310 72.684,242.339 75.083,242.375 72.072 C 242.410 69.061,242.410 64.199,242.375 61.267 C 242.339 58.336,242.310 60.799,242.310 66.742 M141.915 67.980 C 141.915 73.241,141.945 75.394,141.981 72.763 C 142.017 70.132,142.017 65.827,141.981 63.196 C 141.945 60.566,141.915 62.718,141.915 67.980 M224.301 67.980 C 224.301 73.241,224.331 75.394,224.367 72.763 C 224.403 70.132,224.403 65.827,224.367 63.196 C 224.331 60.566,224.301 62.718,224.301 67.980 M204.712 66.742 C 204.712 69.837,204.744 71.134,204.783 69.625 C 204.821 68.115,204.822 65.583,204.783 63.997 C 204.744 62.412,204.712 63.647,204.712 66.742 M195.932 66.742 C 195.932 69.465,195.964 70.549,196.004 69.149 C 196.043 67.749,196.043 65.521,196.004 64.197 C 195.964 62.873,195.931 64.018,195.932 66.742 M177.891 67.695 C 178.483 67.742,179.394 67.741,179.917 67.694 C 180.439 67.647,179.955 67.609,178.841 67.609 C 177.727 67.610,177.299 67.649,177.891 67.695 M183.967 69.555 C 183.967 70.113,184.011 70.340,184.064 70.062 C 184.118 69.783,184.118 69.328,184.064 69.049 C 184.011 68.770,183.967 68.998,183.967 69.555 M190.273 69.668 C 190.274 70.287,190.318 70.514,190.370 70.171 C 190.421 69.829,190.420 69.323,190.367 69.046 C 190.313 68.769,190.271 69.049,190.273 69.668 M178.231 75.350 C 179.009 75.394,180.225 75.394,180.932 75.349 C 181.639 75.304,181.002 75.268,179.516 75.269 C 178.030 75.269,177.452 75.306,178.231 75.350 M184.887 85.537 C 184.887 86.714,184.925 87.195,184.971 86.607 C 185.018 86.019,185.018 85.056,184.971 84.468 C 184.925 83.880,184.887 84.361,184.887 85.537 M201.314 85.312 C 201.314 86.241,201.353 86.621,201.402 86.156 C 201.451 85.692,201.451 84.932,201.402 84.468 C 201.353 84.004,201.314 84.384,201.314 85.312 M203.559 84.975 C 203.560 85.718,203.602 85.994,203.652 85.590 C 203.702 85.185,203.701 84.577,203.650 84.239 C 203.599 83.901,203.558 84.232,203.559 84.975 M202.212 85.425 C 202.213 86.292,202.254 86.618,202.303 86.151 C 202.351 85.684,202.351 84.975,202.301 84.576 C 202.251 84.176,202.211 84.558,202.212 85.425 M173.170 85.650 C 173.172 86.393,173.214 86.670,173.264 86.265 C 173.314 85.860,173.313 85.253,173.262 84.914 C 173.210 84.576,173.169 84.907,173.170 85.650 M174.746 85.650 C 174.747 86.393,174.789 86.670,174.840 86.265 C 174.890 85.860,174.889 85.253,174.837 84.914 C 174.786 84.576,174.745 84.907,174.746 85.650 M224.899 84.778 C 224.885 85.042,225.051 85.396,225.267 85.566 C 225.610 85.835,225.628 85.831,225.404 85.537 C 225.263 85.352,225.097 84.997,225.036 84.750 C 224.931 84.322,224.924 84.323,224.899 84.778 M180.396 84.947 C 180.330 85.117,180.310 85.751,180.351 86.354 L 180.425 87.451 180.533 86.043 C 180.643 84.622,180.613 84.382,180.396 84.947 M200.840 85.763 C 200.840 86.196,200.886 86.373,200.943 86.156 C 201.000 85.940,201.000 85.585,200.943 85.369 C 200.886 85.152,200.840 85.329,200.840 85.763 M213.618 85.749 C 213.618 86.113,213.699 86.461,213.797 86.521 C 213.894 86.582,213.934 86.284,213.884 85.859 C 213.774 84.913,213.618 84.849,213.618 85.749 M220.766 85.502 C 220.701 85.751,220.779 85.913,220.965 85.913 C 221.306 85.913,221.384 85.408,221.072 85.216 C 220.963 85.148,220.825 85.277,220.766 85.502  M -25 0 L -5 0 L -5 20 L -25 20 Z M 405 0 L 425 0 L 425 20 L 405 20 Z" stroke="none" fill="#b45c7c" fill-rule="evenodd" transform="translate(950,570)"></path></g></svg>